<?xml version="1.0" encoding="UTF-8"?>
<svg id="Layer_1" xmlns="http://www.w3.org/2000/svg" version="1.1" viewBox="0 0 100 100">
  <!-- Generator: Adobe Illustrator 30.2.1, SVG Export Plug-In . SVG Version: 2.1.1 Build 1)  -->
  <defs>
    <style>
      .st0 {
        fill: #fff;
      }

      .st1 {
        stroke: #f8b563;
        stroke-miterlimit: 10;
        stroke-width: .4px;
      }

      .st1, .st2 {
        fill: #f8b563;
      }
    </style>
  </defs>
  <rect class="st2" width="100" height="100"/>
  <path class="st0" d="M57.49,57.04v21.6c0,1.79-1.44,3.56-2.88,4.15-1.37.56-6.27.5-7.89.35-2.43-.22-4.1-2.4-4.21-5.11V20.41c.13-1.81,1.04-3.21,2.68-3.5,7.89.35,16.09-.46,23.94,0,13.35.78,21.96,15.26,17.83,29.57-3.76,13.04-19.73,19.14-29.48,10.56ZM57.49,48.91c4.35-.2,9.55.94,13.17-2.47,3.21-3.03,4.07-8.86,1.63-12.79-3.21-5.16-10.03-3.19-14.8-3.58v18.83Z"/>
  <path class="st0" d="M42.51,42.94v-21.6c0-1.79,1.44-3.56,2.88-4.15,1.37-.56,6.27-.5,7.89-.35,2.43.22,4.1,2.4,4.21,5.11v57.62c0,.89-1.04,3.21-2.68,3.5,0,0,0,0,0,0-8.1-.05-16.09.46-23.94,0-13.35-.78-21.96-15.26-17.83-29.57,3.76-13.04,19.73-19.14,29.48-10.56ZM42.51,51.06s0,0,0,0c-4.35.2-9.55-.94-13.17,2.47-3.21,3.03-4.07,8.86-1.63,12.79,3.21,5.16,10.03,3.19,14.8,3.58,0,0,0,0,0,0,0,0,0-18.83,0-18.83Z"/>
  <line class="st0" x1="57.61" y1="45.16" x2="57.61" y2="60.74"/>
  <line class="st1" x1="42.34" y1="38.62" x2="42.34" y2="53.98"/>
  <line class="st1" x1="57.66" y1="46.19" x2="57.66" y2="61.78"/>
</svg>