<?xml version="1.0" encoding="UTF-8"?>
<svg id="Layer_1" xmlns="http://www.w3.org/2000/svg" version="1.1" viewBox="0 0 100 100">
  <!-- Generator: Adobe Illustrator 30.2.1, SVG Export Plug-In . SVG Version: 2.1.1 Build 1)  -->
  <defs>
    <style>
      .st0 {
        fill: #fff;
      }

      .st1 {
        stroke: #f8b563;
        stroke-miterlimit: 10;
        stroke-width: .4px;
      }

      .st1, .st2 {
        fill: #f8b563;
      }
    </style>
  </defs>
  <rect class="st2" width="100" height="100"/>
  <path class="st0" d="M58.41,57.91v24.26c0,2.01-1.62,4-3.23,4.66-1.54.63-7.05.56-8.86.39-2.73-.24-4.61-2.7-4.73-5.74V16.77c.14-2.04,1.17-3.61,3.01-3.94,8.86.39,18.07-.52,26.89,0,15,.87,24.67,17.14,20.03,33.21-4.23,14.65-22.16,21.5-33.1,11.86ZM58.41,48.78c4.89-.23,10.73,1.05,14.79-2.77,3.61-3.4,4.57-9.96,1.83-14.36-3.6-5.8-11.26-3.58-16.62-4.02v21.15Z"/>
  <path class="st0" d="M41.59,42.07v-24.26c0-2.01,1.62-4,3.23-4.66,1.54-.63,7.05-.56,8.86-.39,2.73.24,4.61,2.7,4.73,5.74v64.71c0,1-1.17,3.61-3.01,3.94,0,0,0,0,0,0-9.1-.06-18.07.52-26.88,0-15-.87-24.67-17.14-20.03-33.21,4.23-14.65,22.16-21.5,33.1-11.86ZM41.59,51.19s0,0,0,0c-4.89.23-10.73-1.05-14.79,2.77-3.61,3.4-4.57,9.96-1.83,14.36,3.6,5.8,11.26,3.58,16.62,4.02,0,0,0,0,0,0,0,0,0-21.15,0-21.15Z"/>
  <line class="st0" x1="58.55" y1="44.57" x2="58.55" y2="62.07"/>
  <line class="st1" x1="41.4" y1="37.22" x2="41.4" y2="54.47"/>
  <line class="st1" x1="58.6" y1="45.72" x2="58.6" y2="63.22"/>
</svg>