<?xml version="1.0" encoding="UTF-8"?>
<svg id="Layer_1" xmlns="http://www.w3.org/2000/svg" version="1.1" viewBox="0 0 73.4 95.25">
  <!-- Generator: Adobe Illustrator 30.2.1, SVG Export Plug-In . SVG Version: 2.1.1 Build 1)  -->
  <defs>
    <style>
      .st0 {
        fill: #fff;
      }
    </style>
  </defs>
  <path class="st0" d="M24.16,57.71v30.95c0,2.57-2.33,5.11-4.64,5.94-2.21.8-10.12.71-12.73.5-3.93-.31-6.62-3.44-6.79-7.32V5.23C.21,2.63,1.68.63,4.33.21c12.73.5,25.95-.66,38.62,0,21.54,1.11,35.43,21.87,28.77,42.37-6.07,18.69-31.84,27.43-47.55,15.13ZM24.16,46.07c7.02-.29,15.41,1.34,21.24-3.53,5.18-4.34,6.57-12.7,2.63-18.32-5.18-7.4-16.18-4.57-23.88-5.13v26.99Z"/>
</svg>