<?xml version="1.0" encoding="UTF-8"?>
<svg id="Layer_1" xmlns="http://www.w3.org/2000/svg" version="1.1" viewBox="0 0 85.37 74.71">
  <!-- Generator: Adobe Illustrator 30.2.1, SVG Export Plug-In . SVG Version: 2.1.1 Build 1)  -->
  <defs>
    <style>
      .st0 {
        fill: #fff;
      }
    </style>
  </defs>
  <path class="st0" d="M51.09,45.26v24.26c0,2.01-1.62,4-3.23,4.66-1.54.63-7.05.56-8.86.39-2.73-.24-4.61-2.7-4.73-5.74V4.13c.14-2.04,1.17-3.61,3.01-3.94,8.86.39,18.07-.52,26.89,0,15,.87,24.67,17.14,20.03,33.21-4.23,14.65-22.16,21.5-33.1,11.86ZM51.09,36.14c4.89-.23,10.73,1.05,14.79-2.77,3.61-3.4,4.57-9.96,1.83-14.36-3.6-5.8-11.26-3.58-16.62-4.02v21.15Z"/>
  <path class="st0" d="M34.27,29.43V5.16c0-2.01,1.62-4,3.23-4.66,1.54-.63,7.05-.56,8.86-.39,2.73.24,4.61,2.7,4.73,5.74v64.71c0,1-1.17,3.61-3.01,3.94,0,0,0,0,0,0-9.1-.06-18.07.52-26.88,0-15-.87-24.67-17.14-20.03-33.21,4.23-14.65,22.16-21.5,33.1-11.86ZM34.27,38.55s0,0,0,0c-4.89.23-10.73-1.05-14.79,2.77-3.61,3.4-4.57,9.96-1.83,14.36,3.6,5.8,11.26,3.58,16.62,4.02,0,0,0,0,0,0,0,0,0-21.15,0-21.15Z"/>
</svg>